<svg width="148" height="158" viewBox="0 0 148 158" fill="none" xmlns="http://www.w3.org/2000/svg">
<g filter="url(#filter0_d_4_56)">
<path d="M138.476 47.2657C143.169 45.0775 145.247 39.4593 142.491 35.0762C135.257 23.572 124.997 14.196 112.757 8.02659C97.7139 0.444038 80.5557 -1.85299 64.0475 1.50564C47.5392 4.86427 32.6425 13.683 21.7576 26.5407C10.8727 39.3984 4.63365 55.5464 4.04571 72.3825C3.45778 89.2187 8.55522 105.762 18.5167 119.348C28.4781 132.934 42.7234 142.77 58.9571 147.272C75.1908 151.774 92.4675 150.68 108.003 144.165C120.644 138.865 131.533 130.227 139.551 119.256C142.607 115.075 140.925 109.326 136.397 106.816C131.868 104.305 126.218 106.005 122.992 110.055C117.138 117.4 109.505 123.203 100.752 126.874C89.1007 131.76 76.1431 132.581 63.9678 129.204C51.7926 125.828 41.1086 118.45 33.6375 108.261C26.1664 98.0719 22.3433 85.664 22.7843 73.0369C23.2252 60.4098 27.9046 48.2988 36.0682 38.6555C44.2319 29.0122 55.4044 22.3982 67.7856 19.8792C80.1668 17.3603 93.0355 19.083 104.318 24.7699C112.794 29.042 120.003 35.364 125.33 43.0996C128.266 47.3641 133.784 49.4539 138.476 47.2657Z" fill="#7C3AED"/>
<path d="M113.666 58.8349C117.045 57.2594 118.547 53.2061 116.484 50.1009C112.185 43.6295 106.26 38.3472 99.2545 34.816C90.2284 30.2664 79.9334 28.8882 70.0285 30.9034C60.1235 32.9186 51.1855 38.2098 44.6546 45.9244C38.1236 53.639 34.3802 63.3278 34.0274 73.4295C33.6747 83.5312 36.7331 93.4575 42.71 101.609C48.6869 109.76 57.234 115.662 66.9743 118.363C76.7145 121.065 87.0805 120.408 96.402 116.499C103.637 113.465 109.916 108.609 114.656 102.453C116.93 99.4994 115.715 95.3513 112.454 93.544C109.194 91.7366 105.132 92.9794 102.673 95.781C99.5384 99.3515 95.6166 102.19 91.1814 104.049C84.6564 106.786 77.4002 107.245 70.582 105.354C63.7638 103.464 57.7808 99.3322 53.597 93.6262C49.4132 87.9202 47.2723 80.9718 47.5192 73.9007C47.7661 66.8295 50.3866 60.0473 54.9582 54.6471C59.5299 49.2468 65.7865 45.543 72.7199 44.1324C79.6534 42.7217 86.8599 43.6865 93.1781 46.8712C97.4728 49.0359 101.187 52.1405 104.065 55.921C106.323 58.8873 110.288 60.4103 113.666 58.8349Z" fill="#D9D9D9"/>
<path d="M89 75C89 80.5228 84.5229 85 79 85C73.4772 85 69 80.5228 69 75C69 69.4772 73.4772 65 79 65C84.5229 65 89 69.4772 89 75Z" fill="#9F3EFF"/>
<path d="M107.756 74.144C107.132 74.144 106.58 74.004 106.1 73.724C105.62 73.436 105.24 73.052 104.96 72.572C104.68 72.084 104.54 71.54 104.54 70.94C104.54 70.34 104.68 69.8 104.96 69.32C105.24 68.832 105.62 68.448 106.1 68.168C106.58 67.88 107.132 67.736 107.756 67.736C108.38 67.736 108.932 67.88 109.412 68.168C109.9 68.448 110.28 68.828 110.552 69.308C110.832 69.788 110.972 70.332 110.972 70.94C110.972 71.54 110.832 72.084 110.552 72.572C110.28 73.052 109.9 73.436 109.412 73.724C108.932 74.004 108.38 74.144 107.756 74.144ZM107.756 73.196C108.18 73.196 108.548 73.096 108.86 72.896C109.172 72.696 109.416 72.428 109.592 72.092C109.768 71.748 109.856 71.364 109.856 70.94C109.856 70.516 109.768 70.136 109.592 69.8C109.416 69.456 109.172 69.184 108.86 68.984C108.548 68.784 108.18 68.684 107.756 68.684C107.34 68.684 106.972 68.784 106.652 68.984C106.34 69.184 106.096 69.456 105.92 69.8C105.744 70.136 105.656 70.516 105.656 70.94C105.656 71.364 105.744 71.748 105.92 72.092C106.096 72.428 106.34 72.696 106.652 72.896C106.972 73.096 107.34 73.196 107.756 73.196Z" fill="white"/>
<path d="M112.388 74V70.46C112.388 69.916 112.508 69.44 112.748 69.032C112.996 68.624 113.336 68.308 113.768 68.084C114.2 67.852 114.692 67.736 115.244 67.736C115.804 67.736 116.296 67.852 116.72 68.084C117.152 68.308 117.488 68.624 117.728 69.032C117.976 69.44 118.1 69.916 118.1 70.46V74H116.996V70.472C116.996 70.104 116.912 69.788 116.744 69.524C116.584 69.252 116.368 69.044 116.096 68.9C115.832 68.756 115.548 68.684 115.244 68.684C114.94 68.684 114.652 68.756 114.38 68.9C114.116 69.044 113.9 69.252 113.732 69.524C113.572 69.788 113.492 70.104 113.492 70.472V74H112.388Z" fill="white"/>
<path d="M119.853 74V70.46C119.853 69.916 119.973 69.44 120.213 69.032C120.461 68.624 120.801 68.308 121.233 68.084C121.665 67.852 122.157 67.736 122.709 67.736C123.269 67.736 123.761 67.852 124.185 68.084C124.617 68.308 124.953 68.624 125.193 69.032C125.441 69.44 125.565 69.916 125.565 70.46V74H124.461V70.472C124.461 70.104 124.377 69.788 124.209 69.524C124.049 69.252 123.833 69.044 123.561 68.9C123.297 68.756 123.013 68.684 122.709 68.684C122.405 68.684 122.117 68.756 121.845 68.9C121.581 69.044 121.365 69.252 121.197 69.524C121.037 69.788 120.957 70.104 120.957 70.472V74H119.853Z" fill="white"/>
<path d="M130.425 74C129.753 74 129.157 73.876 128.637 73.628C128.117 73.372 127.709 73.016 127.413 72.56C127.125 72.096 126.981 71.556 126.981 70.94C126.981 70.332 127.105 69.788 127.353 69.308C127.601 68.82 127.945 68.436 128.385 68.156C128.825 67.876 129.337 67.736 129.921 67.736C130.553 67.736 131.077 67.872 131.493 68.144C131.917 68.416 132.233 68.784 132.441 69.248C132.649 69.704 132.753 70.216 132.753 70.784C132.753 70.872 132.749 70.964 132.741 71.06C132.741 71.156 132.733 71.24 132.717 71.312H128.157C128.197 71.688 128.321 72.008 128.529 72.272C128.737 72.528 129.001 72.724 129.321 72.86C129.649 72.988 130.009 73.052 130.401 73.052H131.997V74H130.425ZM128.145 70.532H131.637C131.637 70.38 131.621 70.22 131.589 70.052C131.557 69.876 131.501 69.708 131.421 69.548C131.341 69.38 131.233 69.232 131.097 69.104C130.969 68.968 130.805 68.86 130.605 68.78C130.413 68.7 130.185 68.66 129.921 68.66C129.641 68.66 129.393 68.716 129.177 68.828C128.969 68.932 128.789 69.076 128.637 69.26C128.485 69.436 128.369 69.636 128.289 69.86C128.209 70.084 128.161 70.308 128.145 70.532Z" fill="white"/>
<path d="M137.125 74C136.493 74 135.929 73.864 135.433 73.592C134.937 73.32 134.545 72.956 134.257 72.5C133.969 72.036 133.825 71.516 133.825 70.94C133.825 70.364 133.969 69.848 134.257 69.392C134.545 68.928 134.937 68.56 135.433 68.288C135.929 68.016 136.493 67.88 137.125 67.88H137.845V68.828H137.089C136.681 68.828 136.313 68.924 135.985 69.116C135.665 69.3 135.409 69.552 135.217 69.872C135.033 70.192 134.941 70.548 134.941 70.94C134.941 71.332 135.033 71.688 135.217 72.008C135.409 72.328 135.665 72.584 135.985 72.776C136.313 72.96 136.681 73.052 137.089 73.052H137.845V74H137.125Z" fill="white"/>
<path d="M141.194 74C140.65 74 140.222 73.844 139.91 73.532C139.606 73.22 139.454 72.796 139.454 72.26V66.344H140.558V72.188C140.558 72.452 140.63 72.664 140.774 72.824C140.926 72.976 141.134 73.052 141.398 73.052H142.634V74H141.194ZM138.398 68.828V67.88H142.658V68.828H138.398Z" fill="white"/>
<path d="M104.846 84V79.62C104.846 79.076 104.998 78.652 105.302 78.348C105.614 78.036 106.042 77.88 106.586 77.88H107.846V78.828H106.79C106.526 78.828 106.318 78.904 106.166 79.056C106.022 79.208 105.95 79.42 105.95 79.692V84H104.846Z" fill="white"/>
<path d="M111.41 84.144C110.818 84.144 110.306 84.004 109.874 83.724C109.442 83.436 109.11 83.048 108.878 82.56C108.646 82.072 108.53 81.532 108.53 80.94C108.53 80.34 108.658 79.8 108.914 79.32C109.17 78.832 109.538 78.448 110.018 78.168C110.498 77.88 111.074 77.736 111.746 77.736C112.394 77.736 112.95 77.876 113.414 78.156C113.878 78.436 114.234 78.816 114.482 79.296C114.738 79.776 114.866 80.312 114.866 80.904V84H113.75V82.752H113.726C113.606 82.984 113.442 83.208 113.234 83.424C113.034 83.632 112.782 83.804 112.478 83.94C112.174 84.076 111.818 84.144 111.41 84.144ZM111.698 83.196C112.098 83.196 112.45 83.1 112.754 82.908C113.066 82.708 113.306 82.436 113.474 82.092C113.65 81.74 113.738 81.348 113.738 80.916C113.738 80.492 113.654 80.112 113.486 79.776C113.326 79.44 113.094 79.176 112.79 78.984C112.486 78.784 112.13 78.684 111.722 78.684C111.29 78.684 110.918 78.784 110.606 78.984C110.302 79.184 110.066 79.456 109.898 79.8C109.738 80.136 109.658 80.52 109.658 80.952C109.658 81.368 109.738 81.748 109.898 82.092C110.058 82.428 110.29 82.696 110.594 82.896C110.898 83.096 111.266 83.196 111.698 83.196Z" fill="white"/>
<path d="M116.984 84V78.828H115.916V77.88H116.984V76.98C116.984 76.436 117.136 76.012 117.44 75.708C117.752 75.396 118.18 75.24 118.724 75.24H120.236V76.188H118.94C118.668 76.188 118.46 76.264 118.316 76.416C118.172 76.568 118.1 76.78 118.1 77.052V77.88H119.996V78.828H118.1V84H116.984Z" fill="white"/>
<path d="M123.071 84C122.527 84 122.099 83.844 121.787 83.532C121.483 83.22 121.331 82.796 121.331 82.26V76.344H122.435V82.188C122.435 82.452 122.507 82.664 122.651 82.824C122.803 82.976 123.011 83.052 123.275 83.052H124.511V84H123.071ZM120.275 78.828V77.88H124.535V78.828H120.275Z" fill="white"/>
</g>
<defs>
<filter id="filter0_d_4_56" x="0" y="-9.15527e-05" width="147.727" height="158" filterUnits="userSpaceOnUse" color-interpolation-filters="sRGB">
<feFlood flood-opacity="0" result="BackgroundImageFix"/>
<feColorMatrix in="SourceAlpha" type="matrix" values="0 0 0 0 0 0 0 0 0 0 0 0 0 0 0 0 0 0 127 0" result="hardAlpha"/>
<feOffset dy="4"/>
<feGaussianBlur stdDeviation="2"/>
<feComposite in2="hardAlpha" operator="out"/>
<feColorMatrix type="matrix" values="0 0 0 0 0 0 0 0 0 0 0 0 0 0 0 0 0 0 0.25 0"/>
<feBlend mode="normal" in2="BackgroundImageFix" result="effect1_dropShadow_4_56"/>
<feBlend mode="normal" in="SourceGraphic" in2="effect1_dropShadow_4_56" result="shape"/>
</filter>
</defs>
</svg>
